<svg id="Layer_1" data-name="Layer 1" xmlns="http://www.w3.org/2000/svg" viewBox="0 0 557 425"><defs><style>.cls-1{fill:#7d387d;}</style></defs><title>Untitled-1</title><rect class="cls-1" x="0.5" y="0.5" width="556" height="110" rx="11.5" ry="11.5"/><path d="M703,117a11,11,0,0,1,11,11v87a11,11,0,0,1-11,11H170a11,11,0,0,1-11-11V128a11,11,0,0,1,11-11H703m0-1H170a12,12,0,0,0-12,12v87a12,12,0,0,0,12,12H703a12,12,0,0,0,12-12V128a12,12,0,0,0-12-12Z" transform="translate(-158 -116)"/><rect class="cls-1" x="0.5" y="157.5" width="556" height="110" rx="11.5" ry="11.5"/><path d="M703,274a11,11,0,0,1,11,11v87a11,11,0,0,1-11,11H170a11,11,0,0,1-11-11V285a11,11,0,0,1,11-11H703m0-1H170a12,12,0,0,0-12,12v87a12,12,0,0,0,12,12H703a12,12,0,0,0,12-12V285a12,12,0,0,0-12-12Z" transform="translate(-158 -116)"/><rect class="cls-1" x="0.5" y="314.5" width="556" height="110" rx="11.5" ry="11.5"/><path d="M703,431a11,11,0,0,1,11,11v87a11,11,0,0,1-11,11H170a11,11,0,0,1-11-11V442a11,11,0,0,1,11-11H703m0-1H170a12,12,0,0,0-12,12v87a12,12,0,0,0,12,12H703a12,12,0,0,0,12-12V442a12,12,0,0,0-12-12Z" transform="translate(-158 -116)"/></svg>